<?xml version="1.0" standalone="no"?><!DOCTYPE svg PUBLIC "-//W3C//DTD SVG 1.1//EN" "http://www.w3.org/Graphics/SVG/1.1/DTD/svg11.dtd"><svg t="1689217705007" class="icon" viewBox="0 0 1024 1024" version="1.1" xmlns="http://www.w3.org/2000/svg" p-id="3044" xmlns:xlink="http://www.w3.org/1999/xlink" width="200" height="200"><path d="M372.736 516.608c-65.536 0-118.784-53.76-118.784-118.784S307.2 278.528 372.736 278.528 491.52 332.288 491.52 397.824s-53.248 118.784-118.784 118.784z m0-186.88c-37.376 0-67.584 30.208-67.584 67.584s30.208 67.584 67.584 67.584c37.376 0 67.584-30.208 67.584-67.584s-30.208-67.584-67.584-67.584z" fill="#d81e06" p-id="3045"></path><path d="M510.976 733.184h-276.48c-14.336 0-25.6-11.264-25.6-25.6v-77.312c0-90.624 73.728-163.84 163.84-163.84s163.84 73.728 163.84 163.84v77.312c0 13.824-11.776 25.6-25.6 25.6z m-251.392-51.712h225.792v-51.2c0-62.464-50.688-113.152-113.152-113.152s-113.152 50.688-113.152 113.152l0.512 51.2z m510.976-298.496h-186.368c-15.36 0-27.136-12.288-27.136-27.136s12.288-27.136 27.136-27.136h186.368c15.36 0 27.136 12.288 27.136 27.136s-11.776 27.136-27.136 27.136z m0 142.336H614.4c-15.36 0-27.136-12.288-27.136-27.136 0-15.36 12.288-27.136 27.136-27.136h156.16c15.36 0 27.136 12.288 27.136 27.136 0.512 15.36-11.776 27.136-27.136 27.136zM900.096 692.736h-77.824v-77.312c0-15.872-12.8-28.672-28.672-28.672-15.872 0-28.672 12.8-28.672 28.672v77.312h-78.336c-15.872 0-28.672 12.8-28.672 28.672s12.8 28.672 28.672 28.672h77.824v82.432c0 15.872 12.8 28.672 28.672 28.672s28.672-12.8 28.672-28.672v-82.432h77.824c15.872 0 28.672-12.8 28.672-28.672s-12.288-28.672-28.16-28.672z" fill="#d81e06" p-id="3046"></path><path d="M899.584 165.888h-289.28V138.24c0-27.136-22.016-49.152-49.152-49.152H461.824c-27.136 0-49.152 22.016-49.152 49.152v27.648H124.416c-15.872 0-28.672 12.8-28.672 28.672v635.392c0 15.872 12.8 28.672 28.672 28.672h470.528c12.8 0 24.064-10.752 24.064-24.064v-14.848c0-12.8-10.752-23.552-24.064-23.552H158.208V228.352h266.24c15.872 28.16 46.08 47.104 80.896 47.104h12.8c34.816 0 64.512-18.944 80.896-47.104h266.752v302.08c0 12.8 10.752 23.552 23.552 24.064h14.848c13.312 0 24.064-10.752 24.064-24.064V194.56c0-15.872-12.8-28.672-28.672-28.672z m-346.112 17.408c0 18.944-15.872 34.816-34.816 34.816h-12.8c-18.944 0-34.816-15.872-34.816-34.816v-36.864h82.944v36.864z" fill="#d81e06" p-id="3047"></path></svg>